<?xml version="1.0" standalone="no"?>
<!DOCTYPE svg PUBLIC "-//W3C//DTD SVG 1.1//EN" "http://www.w3.org/Graphics/SVG/1.1/DTD/svg11.dtd" >
<svg xmlns="http://www.w3.org/2000/svg">
<metadata>
Created by FontForge 20120731 at Mon Jan  5 16:30:41 2015
 By Ads
</metadata>
<defs>
<font id="iconfont" horiz-adv-x="1024" >
  <font-face 
    font-family="iconfont"
    font-weight="500"
    font-stretch="normal"
    units-per-em="1024"
    panose-1="2 0 6 3 0 0 0 0 0 0"
    ascent="812"
    descent="-212"
    x-height="792"
    bbox="-0.552941 -212.1 1934 813.026"
    underline-thickness="50"
    underline-position="-100"
    unicode-range="U+0078-E68C"
  />
<missing-glyph horiz-adv-x="374" 
d="M34 0v682h272v-682h-272zM68 34h204v614h-204v-614z" />
    <glyph glyph-name=".notdef" horiz-adv-x="374" 
d="M34 0v682h272v-682h-272zM68 34h204v614h-204v-614z" />
    <glyph glyph-name=".null" horiz-adv-x="0" 
 />
    <glyph glyph-name="nonmarkingreturn" horiz-adv-x="341" 
 />
    <glyph glyph-name="x" unicode="x" horiz-adv-x="1001" 
d="M281 543q-27 -1 -53 -1h-83q-18 0 -36.5 -6t-32.5 -18.5t-23 -32t-9 -45.5v-76h912v41q0 16 -0.5 30t-0.5 18q0 13 -5 29t-17 29.5t-31.5 22.5t-49.5 9h-133v-97h-438v97zM955 310v-52q0 -23 0.5 -52t0.5 -58t-10.5 -47.5t-26 -30t-33 -16t-31.5 -4.5q-14 -1 -29.5 -0.5
t-29.5 0.5h-32l-45 128h-439l-44 -128h-29h-34q-20 0 -45 1q-25 0 -41 9.5t-25.5 23t-13.5 29.5t-4 30v167h911zM163 247q-12 0 -21 -8.5t-9 -21.5t9 -21.5t21 -8.5q13 0 22 8.5t9 21.5t-9 21.5t-22 8.5zM316 123q-8 -26 -14 -48q-5 -19 -10.5 -37t-7.5 -25t-3 -15t1 -14.5
t9.5 -10.5t21.5 -4h37h67h81h80h64h36q23 0 34 12t2 38q-5 13 -9.5 30.5t-9.5 34.5q-5 19 -11 39h-368zM336 498v228q0 11 2.5 23t10 21.5t20.5 15.5t34 6h188q31 0 51.5 -14.5t20.5 -52.5v-227h-327z" />
    <glyph glyph-name="uniE66A" unicode="&#xe66a;" 
d="M412 158q-17 0 -29.5 -12.5t-12.5 -30.5t12.5 -30.5t29.5 -12.5q29 0 40 27q3 9 3 16t-2 13.5t-6 12t-9.5 9t-12 6t-13.5 2.5zM640 158q-9 0 -17 -3.5t-13.5 -9t-9 -13.5t-3.5 -17q0 -18 12.5 -30.5t30.5 -12.5t30.5 12.5t12.5 30.5t-12.5 30.5t-30.5 12.5zM697 528h-384
q-8 0 -14.5 -4t-10 -10.5t-3.5 -14.5q0 -12 8 -20t20 -8h28v-242q0 -18 12.5 -30.5t30.5 -12.5h299q11 0 19.5 8.5t8.5 20.5q0 7 -4 13.5t-10.5 10.5t-13.5 4h-285v57h265q10 0 18.5 4t14.5 11.5t9 17.5l33 142q5 20 -7.5 36.5t-33.5 16.5zM652 357h-254v114h281zM512 784
q-181 0 -317 -119q-131 -113 -160 -283q-6 -41 -7 -82q0 -98 38.5 -187.5t103.5 -154.5t154.5 -103.5t187.5 -38.5t187.5 38.5t154.5 103.5t103.5 154.5t38.5 187.5q0 79 -24.5 152.5t-69.5 133t-104.5 104.5t-133 69.5t-152.5 24.5zM512 -141q-90 0 -171.5 35t-140.5 94
t-94 140.5t-35 171.5t35 171.5t94 140.5t140.5 94t171.5 35t171.5 -35t140.5 -94t94 -140.5t35 -171.5t-35 -171.5t-94 -140.5t-140.5 -94t-171.5 -35z" />
    <glyph glyph-name="uniE66B" unicode="&#xe66b;" 
d="M466 249h-96q-5 0 -8.5 -4t-3.5 -9v-42q0 -6 3.5 -10t8.5 -4h96q5 0 8.5 4t3.5 10v42q0 5 -3.5 9t-8.5 4zM441 317q14 0 24.5 9.5t11.5 24.5q0 34 1 103h-61q-1 -18 -3.5 -52t-3.5 -52q-1 -3 0 -6.5t2 -6.5t2 -5t3 -4q10 -11 24 -11zM375 454h-67l-18 -104q-2 -13 6 -22
q10 -11 25 -11h1q16 0 28.5 10t14.5 25zM597 350v2q-2 34 -7 102h-61l2 -103q0 -10 5 -18t13 -12t17 -4q14 0 24 11q8 10 7 22zM654 249h-62q-5 0 -8.5 -3.5t-3.5 -9.5v-94q0 -5 3.5 -9t8.5 -4h62q2 0 4.5 1t4 3t2.5 4t1 5v94q0 6 -3.5 9.5t-8.5 3.5zM853 812h-682
q-71 0 -121 -50t-50 -121v-682q0 -28 8.5 -54t24.5 -47t37 -37t47 -24.5t54 -8.5h682q71 0 121 50t50 121v682q0 46 -23 85.5t-62.5 62.5t-85.5 23zM786 349q4 -23 -5.5 -42.5t-30.5 -30.5v-198q0 -7 -2.5 -13.5t-7 -11t-11 -7t-12.5 -2.5h-410q-6 0 -12.5 2.5t-11 7t-7 11
t-2.5 13.5v198q-21 11 -30.5 30.5t-5.5 42.5v2q2 8 8.5 43.5t10.5 54.5h-3q-10 0 -17 8t-4 20l11 55q2 10 10 17t18 7h480q6 0 12 -3t10 -8.5t6 -12.5l11 -55q3 -12 -4 -20q-3 -4 -7.5 -6t-9.5 -2h-3zM716 454h-67q1 -18 5 -52t5 -50q2 -15 14.5 -25t28.5 -10h1q7 0 13.5 3
t11.5 8q8 9 6 22z" />
    <glyph glyph-name="uniE66C" unicode="&#xe66c;" 
d="M560 289q-3 0 -6.5 -0.5t-6.5 -2.5t-5.5 -4.5t-4 -5t-2.5 -6t-1 -7.5t1.5 -8t4 -7t5.5 -5.5t7 -4t8 -1.5q11 0 18.5 8t7.5 18.5t-7.5 18t-18.5 7.5zM682 289q-5 0 -10 -2t-8.5 -5.5t-5.5 -8t-2 -10t2 -10.5t5.5 -8.5t8.5 -5.5t10 -2q11 0 18.5 8t7.5 18q0 7 -3.5 13
t-9.5 9.5t-13 3.5zM853 812h-682q-71 0 -121 -50t-50 -121v-682q0 -28 8.5 -54t24.5 -47t37 -37t47 -24.5t54 -8.5h682q71 0 121 50t50 121v682q0 46 -23 85.5t-62.5 62.5t-85.5 23zM346 186l-94 -41l11 107q-41 52 -41 115q0 85 70 145.5t169 60.5q39 0 75.5 -10.5
t66 -29.5t51.5 -44t34.5 -56.5t12.5 -65.5q0 -1 -0.5 -3t-0.5 -4v-3q-6 3 -12.5 4.5t-13 3.5t-12.5 3l-14 2q-6 1 -13 1.5t-14 0.5q-83 0 -142 -52t-59 -125q0 -15 3 -31q-42 6 -77 22zM779 27l-71 31q-41 -19 -87 -19q-75 0 -128 45.5t-53 110.5q0 42 24 78t66 57t91 21
q75 0 128 -45.5t53 -110.5q0 -24 -8 -46t-23 -41zM381 492q-7 0 -13.5 -2.5t-11 -7.5t-7 -11t-2.5 -14q0 -14 9.5 -24t24.5 -10q6 0 12.5 2.5t11 7.5t7.5 11t3 13q0 15 -10 25t-24 10zM542 423q7 0 13 2.5t10.5 7.5t7.5 11t3 13q0 15 -10 25t-24 10t-24 -10t-10 -24.5
t10 -24.5t24 -10z" />
    <glyph glyph-name="uniE66D" unicode="&#xe66d;" 
d="M783 299q0 13 -5 24t-14 20l1 1l-451 450q-6 8 -14.5 13t-18.5 5q-16 0 -28 -12t-12 -29q0 -8 3.5 -16t10.5 -14h-1l434 -441l-433 -441q-14 -13 -14 -30t12 -29t28 -12q10 0 17.5 4t13.5 11l456 456h-1q16 17 16 40z" />
    <glyph glyph-name="uniE66E" unicode="&#xe66e;" 
d="M770 -150l-413 413q-15 14 -15 34t15 35l416 416q4 4 6.5 8t4 9t1.5 10q0 16 -10.5 26.5t-26.5 10.5q-16 -1 -27 -12l-468 -468q-5 -6 -8.5 -13t-5 -14.5t0 -15t5 -14.5t8.5 -12l463 -463l2 -2v0q11 -10 25 -10q6 0 11.5 2t10 5t8 7.5t5.5 10.5t2 12q0 7 -3 13t-7 11v1z
" />
    <glyph glyph-name="uniE66F" unicode="&#xe66f;" 
d="M512 812q-139 0 -257 -68.5t-186.5 -186.5t-68.5 -257t68.5 -257t186.5 -186.5t257 -68.5t257 68.5t186.5 186.5t68.5 257t-68.5 257t-186.5 186.5t-257 68.5zM512 -165q-95 0 -181 36.5t-148.5 99t-99 148.5t-36.5 181t36.5 181t99 148.5t148.5 99t181 36.5
q63 0 123.5 -16.5t111.5 -46.5t94 -73t73 -94t46.5 -111.5t16.5 -123.5q0 -95 -36.5 -181t-99 -148.5t-148.5 -99t-181 -36.5zM559 556h-93v-209h-210v-94h210v-209h93v209h209v94h-209v209z" />
    <glyph glyph-name="uniE670" unicode="&#xe670;" 
d="M256 253h512v94h-512v-94zM512 812q-139 0 -257 -68.5t-186.5 -186.5t-68.5 -257t68.5 -257t186.5 -186.5t257 -68.5t257 68.5t186.5 186.5t68.5 257t-68.5 257t-186.5 186.5t-257 68.5zM512 -142q-168 0 -294 112q-121 108 -144 268q-4 31 -4 62q0 90 35 172t94 141
t141 94t172 35t172 -35t141 -94t94 -141t35 -172q0 -52 -11.5 -101.5t-33.5 -93t-52 -82t-68.5 -68.5t-82 -52t-93 -33.5t-101.5 -11.5z" />
    <glyph glyph-name="uniE671" unicode="&#xe671;" horiz-adv-x="1048" 
d="M523.5 812q-106.5 0 -203.5 -40.5t-167 -109t-111.5 -163.5t-41.5 -199t41.5 -199t111.5 -163.5t167 -109t203.5 -40.5t203.5 40.5t167 109t111.5 163.5t41.5 199t-41.5 199t-111.5 163.5t-167 109t-203.5 40.5zM810 497q-2 -4 -4 -6l-288 -461q-3 -8 -8.5 -14.5
t-12.5 -11t-15 -7t-17 -2.5q-15 0 -28 7t-20 19l-147 196q-17 17 -17 42q0 23 17 40t41 17q30 0 47 -26l110 -134l239 392q1 2 2.5 4t2.5 4t3 4v0q17 22 45 22q7 0 13.5 -1.5t12 -4t10.5 -6.5t9 -9t6.5 -11t4 -12.5t1.5 -12.5q0 -8 -1.5 -14.5t-5.5 -13.5z" />
    <glyph glyph-name="uniE672" unicode="&#xe672;" horiz-adv-x="1094" 
d="M820 437v-649l274 102v922l-274 -102v-273zM410 -110l308 -102v922l-308 102v-922zM0 -212l308 102v922l-308 -102v-922z" />
    <glyph glyph-name="uniE673" unicode="&#xe673;" 
d="M779 468h-500l247 247q17 17 17 40.5t-16.5 40t-40 16.5t-40.5 -17l-388 -387l388 -388q17 -16 40.5 -16t40 16.5t16.5 40t-17 39.5l-254 255h446q16 0 31 -3.5t28 -10t25 -16t21 -21t15.5 -24.5t10 -28t3.5 -31v-293v-27v-56q0 -24 16.5 -40.5t40 -16.5t40.5 16.5
t17 40.5v437q0 77 -55 131.5t-132 54.5z" />
    <glyph glyph-name="uniE674" unicode="&#xe674;" 
d="M990 433l-912 375q-34 14 -61 -11q-12 -12 -15.5 -27.5t1.5 -31.5l339 -914q6 -16 20 -25.5t31 -10.5t31.5 8t21.5 25l155 344q9 21 31 29l356 136q11 5 19 12.5t12.5 17.5t4.5 21q0 17 -9.5 31t-24.5 21z" />
    <glyph glyph-name="uniE675" unicode="&#xe675;" 
d="M512 716q36 0 71 -7t66 -20.5t59.5 -32.5t52 -42.5t43 -52t33 -59.5t20.5 -65.5t7 -70.5q0 -62 -16.5 -120.5t-42 -102.5t-61 -85t-67.5 -68t-68.5 -51t-57 -35t-38.5 -19h-1h-1q-130 60 -223 163q-128 143 -128 318q0 71 28 136t75 111.5t112.5 74.5t136.5 28zM512 140
q93 0 158.5 65.5t65.5 158.5t-65.5 158.5t-158.5 65.5t-158.5 -65.5t-65.5 -158.5t65.5 -158.5t158.5 -65.5zM512 812q-61 0 -119 -16t-107 -45t-90.5 -70t-70.5 -90t-45 -106.5t-16 -118.5q0 -72 18.5 -140.5t47 -120.5t68.5 -99.5t78.5 -80.5t80.5 -61.5t70.5 -44
t53.5 -26.5q12 -5 25 -5h4l2 1q1 0 2 -1h4q6 0 12.5 1.5t12.5 3.5q127 55 233 159q183 180 184 414q0 91 -35.5 173.5t-95.5 142t-143 95t-174 35.5zM512 236q-53 0 -90.5 37.5t-37.5 90.5t37.5 90.5t90.5 37.5t90.5 -37.5t37.5 -90.5t-37.5 -90.5t-90.5 -37.5z" />
    <glyph glyph-name="uniE676" unicode="&#xe676;" 
d="M374 451l1 1q15 -15 37 -15q15 0 27 7t19 19t7 27q0 28 -23 44l-263 263h-1q-15 15 -37 15t-37.5 -15.5t-15.5 -37.5q0 -8 2.5 -15.5t6.5 -14t10 -11.5zM844 -170l-244 244l-56 -56q-16 -16 -38 -16t-38 16l-189 189q-15 16 -15 38t15 37l57 57l-283 282h-1q-8 15 -24 15
q-11 0 -19 -8t-8 -19v-1l1 -1q-1 -16 -1 -18q0 -163 63.5 -311.5t171 -255.5t255.5 -170.5t311 -63.5l5 5q8 -5 15 -5q11 0 18.5 8t7.5 19q0 7 -4 14v1zM1004 -28l-214 214q-16 18 -40 18q-14 0 -26.5 -7.5t-19.5 -19.5t-7 -27q0 -21 16 -37h-1l220 -220v1q16 -16 38 -16
t37.5 15.5t15.5 37.5q-1 25 -19 41z" />
    <glyph glyph-name="uniE677" unicode="&#xe677;" 
d="M512 812q-61 0 -119 -16t-107 -45t-90.5 -70t-70.5 -90t-45 -106.5t-16 -118.5q0 -72 18.5 -140.5t47 -120.5t68.5 -99.5t78.5 -80.5t80.5 -61.5t70.5 -44t53.5 -26.5q12 -5 25 -5h4l2 1q1 0 2 -1h4q6 0 12.5 1.5t12.5 3.5q127 55 233 159q183 180 184 414
q0 91 -35.5 173.5t-95.5 142t-143 95t-174 35.5zM512 236q-53 0 -90.5 37.5t-37.5 90.5t37.5 90.5t90.5 37.5t90.5 -37.5t37.5 -90.5t-37.5 -90.5t-90.5 -37.5z" />
    <glyph glyph-name="uniE678" unicode="&#xe678;" horiz-adv-x="1171" 
d="M841 812q-50 0 -98.5 -19.5t-87.5 -52t-70 -74.5q-48 65 -115 105.5t-141 40.5q-53 0 -103.5 -18.5t-91 -52.5t-71 -78.5t-47 -100.5t-16.5 -116q0 -262 294 -487q139 -106 288 -170l3 -1q12 5 33 14.5t82 42.5t116.5 70t123 96.5t116 121.5t81.5 145t33 168
q0 60 -16.5 116t-47 100.5t-71 78.5t-90.5 52.5t-104 18.5z" />
    <glyph glyph-name="uniE679" unicode="&#xe679;" 
d="M914 7q-16 0 -32 -5t-29 -14t-23 -21l-613 350q1 5 1.5 10t0.5 10v3q0 2 -0.5 4.5t-0.5 3.5l607 290q33 -45 89 -45q46 0 78 32t32 77.5t-32 77.5t-78 32q-28 0 -52.5 -13.5t-39.5 -37t-17 -51.5l-618 -296q-15 15 -35 23.5t-42 8.5q-46 0 -78 -32t-32 -77.5t32 -77.5
t78 -32q40 0 71 27l624 -357q0 -29 14.5 -54.5t40 -40t54.5 -14.5q46 0 78 32t32 78q0 58 -49 91q-28 18 -61 18z" />
    <glyph glyph-name="uniE67A" unicode="&#xe67a;" 
d="M874.5 662.5q-72.5 72.5 -166 111t-196.5 38.5t-196.5 -38.5t-166 -111t-111 -166t-38.5 -196.5t38.5 -196.5t111 -166t166 -111t196.5 -38.5t196.5 38.5t166 111t111 166t38.5 196.5t-38.5 196.5t-111 166zM565 -103v133h-106v-133q-90 12 -165.5 60.5t-124 124
t-60.5 165.5h133v106h-133q18 136 116 234t234 116v-133h106v133q54 -7 104 -28t91 -53.5t73.5 -73.5t53.5 -91t28 -104h-133v-106h133q-12 -90 -60.5 -165.5t-124 -124t-165.5 -60.5zM512 376q-32 0 -54 -22t-22 -54t22 -54t54 -22t54 22t22 54q0 15 -6 29.5t-16 24.5
t-24.5 16t-29.5 6z" />
    <glyph glyph-name="uniE67B" unicode="&#xe67b;" 
d="M464 319q-22 7 -41.5 13.5t-36.5 12.5q-5 -53 -5 -100q0 -29 2 -53t6 -44q3 -16 8 -28.5t8.5 -17.5t6.5 -7v-1q7 -5 18 -11t37 -14t52 -8q58 0 106 33q2 2 4 4.5t4 6.5q-45 -18 -114 -25l-25 -3v53q0 10 6.5 16.5t15.5 6.5q7 0 12 -3t8 -8.5t3 -11.5v-3q57 9 90 25
q5 3 9.5 6t8.5 6q1 11 2 23.5t1 27.5q0 37 -3 79q-38 -3 -84 3.5t-99 21.5zM449 219q-10 0 -17.5 7.5t-7.5 17.5q0 7 3.5 12.5t9 9t12.5 3.5q3 0 5.5 -0.5t4.5 -1.5t4 -3l4 -2q2 -2 3.5 -4t2 -4.5t1.5 -5t1 -4.5q0 -7 -3.5 -12.5t-9.5 -9t-13 -3.5zM579 219q-5 0 -10 2
t-8 5.5t-5 8t-2 9.5t2 9.5t5 8t8 5.5t10 2t9.5 -2t8 -5.5t5.5 -8t2 -9.5q0 -4 -1 -8t-3.5 -7t-5.5 -5.5t-7 -3.5t-8 -1zM739 216q-12 53 -12 118q0 25 -3.5 47.5t-11 41.5t-18 35t-25 29.5t-32.5 23.5q-21 12 -47.5 19t-40.5 8t-26 1h-3h-1h-1h-4q-16 0 -35.5 -2t-56.5 -16
t-61 -39q-52 -52 -51 -147q0 -21 -1 -41t-3.5 -39t-6.5 -36q-10 -43 -27 -78q-7 -13 -14 -23.5t-14 -18.5q5 -5 10 -9q24 -21 55 -21q25 0 55 14q-28 49 -28 162q0 70 8 135l4 30l28 -12q5 -2 13.5 -5.5t35.5 -13t52 -16.5q48 -14 97 -21t90 -1l23 3l3 -23q2 -23 4 -56
q33 -50 14 -96q-7 -15 -18 -27q-6 -36 -17 -58q15 -8 29 -11.5t27 -3.5q30 0 55 21q1 1 3 2.5t3.5 3t2.5 3.5q-15 17 -27 40q-8 17 -15 36.5t-12 40.5zM512 812q-139 0 -257 -68.5t-186.5 -186.5t-68.5 -257t68.5 -257t186.5 -186.5t257 -68.5t257 68.5t186.5 186.5
t68.5 257t-68.5 257t-186.5 186.5t-257 68.5zM843 90q-2 -3 -5.5 -8t-14 -16t-22.5 -19.5t-31.5 -15.5t-40.5 -7q-43 0 -89 26q-58 -34 -121 -34t-122 34q-46 -26 -88 -26q-11 0 -22 1.5t-19.5 5t-16.5 7.5t-15 8.5t-12.5 9.5t-10 10t-8 8.5t-6 7.5t-3.5 5.5t-1 2.5l-10 17
l15 12q17 14 33 46q33 67 32 169q-1 57 15 102t49 78q42 43 109 60q39 11 76 11h5h4q75 0 137 -35q50 -29 78 -76q12 -19 19.5 -41t11.5 -46.5t4 -51.5q0 -106 32 -172q15 -31 31 -44l17 -11z" />
    <glyph glyph-name="uniE67C" unicode="&#xe67c;" horiz-adv-x="1048" 
d="M523.5 742q92.5 0 176.5 -35t144.5 -94t96.5 -141t36 -172t-36 -172t-96.5 -141t-144.5 -94t-176 -35q-74 0 -143.5 22.5t-125 63t-97.5 95t-65 122t-23 139.5q0 90 36 172t96.5 141t144.5 94t176.5 35zM524 812q-107 0 -204 -40.5t-167 -109t-111.5 -163.5t-41.5 -199
t41.5 -199t111.5 -163.5t167 -109t203.5 -40.5t203.5 40.5t167 109t111.5 163.5t41.5 199t-41.5 199t-111.5 163.5t-167 109t-203 40.5z" />
    <glyph glyph-name="uniE67D" unicode="&#xe67d;" 
d="M2 812v-216q164 0 313 -64t257 -172t171.5 -258t63.5 -314h215q0 139 -36.5 272t-102.5 245t-160 206.5t-206 160.5t-244 103t-271 37z" />
    <glyph glyph-name="uniE67E" unicode="&#xe67e;" 
d="M512 812q-104 0 -198.5 -40.5t-162.5 -109t-108.5 -163.5t-40.5 -199t40.5 -199t108.5 -163.5t162.5 -109t198.5 -40.5q83 0 161 26t140.5 73t110 110t73 141.5t25.5 161.5q0 104 -40.5 199t-108.5 163.5t-162.5 109t-198.5 40.5zM512 -104q-109 0 -202 54t-147 147
t-54 203t54 203t147 147t202 54q66 0 127.5 -20.5t111 -57.5t86.5 -87t57.5 -111.5t20.5 -127.5q0 -110 -54 -203t-147 -147t-202 -54z" />
    <glyph glyph-name="uniE67F" unicode="&#xe67f;" 
d="M512 428q-53 0 -90.5 -37.5t-37.5 -90.5v-384q0 -53 37.5 -90.5t90.5 -37.5t90.5 37.5t37.5 90.5v384q0 53 -37.5 90.5t-90.5 37.5zM512 556q53 0 90.5 37.5t37.5 90.5t-37.5 90.5t-90.5 37.5t-90.5 -37.5t-37.5 -90.5t37.5 -90.5t90.5 -37.5z" />
    <glyph glyph-name="uniE680" unicode="&#xe680;" horiz-adv-x="1170" 
d="M512 -66h-60q-86 14 -155.5 65t-110 129t-40.5 167q0 88 42 168l45 -62q12 -17 30 -23.5t35.5 -3.5t32.5 15.5t20 32.5l36 128l49 178q9 31 -11 57.5t-53 26.5h-174h-131q-41 0 -59.5 -36.5t5.5 -69.5l82 -114q-95 -134 -95 -297q0 -76 21.5 -147.5t60.5 -131t92.5 -107
t119.5 -78.5t139 -42q5 -1 9.5 -1t9.5 1v-1h60q30 0 51.5 21t21.5 51v2q0 19 -10 36t-26.5 26.5t-36.5 9.5zM1074 8q95 134 95 297q0 126 -56.5 235.5t-155.5 180.5t-221 90q-5 1 -9.5 1t-9.5 -1v1h-60q-30 0 -51 -21t-21 -51v-2q0 -30 21 -51t51 -21h60
q131 -21 218.5 -123.5t87.5 -237.5q0 -88 -42 -168l-45 62q-15 22 -40.5 27t-47.5 -8.5t-30 -39.5l-35 -128l-50 -178q-9 -31 11 -57.5t53 -26.5h174h132q40 0 58.5 36.5t-4.5 69.5z" />
    <glyph glyph-name="uniE681" unicode="&#xe681;" 
d="M512 812q-139 0 -257 -68.5t-186.5 -186.5t-68.5 -257t68.5 -257t186.5 -186.5t257 -68.5t257 68.5t186.5 186.5t68.5 257t-68.5 257t-186.5 186.5t-257 68.5zM704 235q0 -26 -18.5 -44.5t-44.5 -18.5h-194q-26 0 -44.5 18.5t-18.5 44.5v194q0 26 18.5 44.5t44.5 18.5h2
q26 0 44.5 -18.5t18.5 -44.5v-97q0 -13 9.5 -22.5t22.5 -9.5h97q26 0 44.5 -18.5t18.5 -44.5v-2z" />
    <glyph glyph-name="uniE682" unicode="&#xe682;" horiz-adv-x="1261" 
d="M1260 694v118h-1260v-118q21 0 39.5 -10.5t29 -29t10.5 -39.5t-10.5 -39.5t-29 -29t-39.5 -10.5v-157q33 0 56 -23t23 -56t-23 -56t-56 -23v-157q33 0 56 -23t23 -56t-23 -56t-56 -23v-118h1260v118q-32 0 -55 23t-23 56t23 56t55 23v157q-32 0 -55 23t-23 56t23 56
t55 23v157q-32 0 -55 23t-23 56t23 56t55 23zM866 261h-157v-40h157v-118h-157v-118h-158v118h-157v118h157v40h-157v118h87l-66 261l115 29l72 -290h41l67 275l117 -29l-61 -246h100v-118z" />
    <glyph glyph-name="uniE683" unicode="&#xe683;" 
d="M800 -20q-40 0 -68 -28t-28 -68t28 -68t68 -28t68 28t28 68q0 53 -45 81q-24 15 -51 15zM288 -20q-40 0 -68 -28t-28 -68t28 -68t68 -28q26 0 48 13t35 35t13 48q0 40 -28 68t-68 28zM852 300q16 0 31.5 5.5t28 15t21.5 23.5t12 30l76 319q4 18 2 35.5t-10.5 32.5
t-20.5 26.5t-29 18t-35 6.5h-864q-26 0 -45 -18.5t-19 -45.5t19 -45.5t45 -18.5h64v-544q0 -40 28 -68t68 -28h672q26 0 45 19t19 45.5t-19 45t-45 18.5h-640v128h596zM608 620q0 27 19 45.5t45.5 18.5t45 -18.5t18.5 -45.5v-128q0 -27 -18.5 -45.5t-45 -18.5t-45.5 18.5
t-19 45.5v128zM352 620q0 27 19 45.5t45.5 18.5t45 -18.5t18.5 -45.5v-128q0 -27 -18.5 -45.5t-45 -18.5t-45.5 18.5t-19 45.5v128z" />
    <glyph glyph-name="uniE684" unicode="&#xe684;" 
d="M491 240q-9 -6 -3 -14q4 -8 13 -1q9 6 4 14q-2 4 -6 4t-8 -3zM455 231q-7 -1 -13 -5t-9 -9.5t-3 -11.5q0 -9 7.5 -14.5t18.5 -4.5t18.5 8.5t7.5 16.5t-7.5 15t-19.5 5zM491 320q-17 0 -32.5 -3t-29 -8t-25.5 -11.5t-21.5 -14.5t-16 -17t-10 -19.5t-3.5 -21.5
q0 -38 40 -63t98 -22q28 1 53.5 10t44 23t29.5 32t11 37q0 47 -61 68q-35 12 -77 10zM542 192q-18 -24 -48.5 -30.5t-65.5 10.5q-9 5 -14.5 13.5t-5.5 14.5l-1 6v4q0 3 0.5 10.5t2.5 14.5t6.5 16t11.5 16t19.5 12.5t27.5 7.5q27 3 46 -7t25.5 -26t5.5 -33t-10 -29zM512 812
q-139 0 -257 -68.5t-186.5 -186.5t-68.5 -257t68.5 -257t186.5 -186.5t257 -68.5t257 68.5t186.5 186.5t68.5 257t-68.5 257t-186.5 186.5t-257 68.5zM697 208q-23 -47 -86.5 -72.5t-125.5 -20.5q-165 13 -177 118v5q0 3 1 12.5t4 19.5t10.5 25t18.5 30q56 78 121 100
q18 6 32 6.5t21.5 -3.5t12 -11.5t5.5 -14.5t1 -14q-4 -15 -2.5 -21.5t17.5 -1.5q2 1 6.5 3t17 6t23.5 5t23.5 -1t19.5 -9q10 -10 10.5 -22.5t-3.5 -20.5l-3 -8q-9 -10 9 -13q9 -2 19 -7.5t21.5 -17.5t12.5 -29.5t-9 -42.5zM634 392q-5 0 -9 4t-4 9t4 9t9 4q3 0 8 0.5
t18 -1.5t22.5 -8t16 -22t4.5 -39v-1q-2 -11 -13 -11q-5 0 -8.5 3.5t-3.5 9.5v3q0 2 0.5 8t-0.5 10t-3.5 10.5t-7.5 9t-13 4.5t-20 -2zM766 325q-2 -15 -17 -15q-8 0 -13.5 4.5t-5.5 11.5l4 18q8 29 -6 60q-12 22 -33.5 33t-36.5 12.5t-20 -0.5q-3 -1 -7.5 -2t-6.5 -1.5
t-3 -0.5q-7 0 -12.5 5.5t-5.5 13.5q0 14 13 17v1h2q36 7 63 1q20 -5 38 -15.5t34 -30t19.5 -47t-6.5 -65.5z" />
    <glyph glyph-name="uniE685" unicode="&#xe685;" 
d="M512 812q-139 0 -257 -68.5t-186.5 -186.5t-68.5 -257t68.5 -257t186.5 -186.5t257 -68.5t257 68.5t186.5 186.5t68.5 257t-68.5 257t-186.5 186.5t-257 68.5zM694 231v-3v-2v-3l-1 -5l-1 -5l-1 -4v-2l-1 -2l-1 -1l-1 -2l-1 -1l-1 -2l-2 -1l-1 -1h-1l-1 -1h-1h-1h-1h-1
l-2 1l-1 1l-1 1l-1 1l-2 2l-2 2l-2 3l-1 2l-2 3l-2 4l-2 5h-1l-1 -1v-1l-1 -1l-2 -5l-2 -6l-3 -8l-3 -4l-2 -4l-3 -4l-3 -5l-2 -2l-2 -2l-4 -4l1 -1l2 -1l9 -5l4 -2l4 -2l4 -3l3 -3l2 -1l1 -2l1 -1l1 -2l1 -2l1 -2v-1v-2v-1v-2v-1l-1 -1v-1l-1 -1l-2 -3l-1 -1l-1 -2l-1 -1
l-3 -2l-3 -1l-3 -2l-3 -1l-4 -2h-2l-1 -1l-5 -1l-4 -1l-5 -1l-4 -1h-5h-5h-5h-6h-5h-6h-5l-6 1l-6 1l-6 1l-5 1l-6 1l-6 2l-5 2l-6 2l-3 1h-3l-1 1h-2h-2h-3l-5 1h-3l-4 1l-2 -3l-3 -1l-4 -3l-5 -2l-3 -1l-2 -2l-7 -2l-4 -1l-3 -1l-5 -1h-4l-3 -1h-4h-4h-4h-4h-9h-9l-9 1
l-5 1h-5l-4 1l-5 1l-4 1l-4 1l-3 2l-4 1l-3 1l-3 2l-3 2l-1 1l-1 1l-1 2l-1 1l-1 1v1l-1 3v1l-1 2v1l1 2v1v2v1v2v1l1 2v2l2 2v1l1 1l2 2l1 2h1l2 1l2 1l1 1l2 1l2 1h3l2 1h3h2l4 1h1v1h-1l-1 1l-4 4l-3 2l-3 3l-4 3l-3 4l-4 5l-1 2l-2 3l-2 2l-1 4l-2 3l-2 3l-1 4l-2 4
l-1 3l-1 5h-1v0h-1l-1 -1v-1v-1l-1 -1l-2 -3l-1 -3l-1 -1l-2 -2l-2 -3l-2 -2l-2 -2l-2 -2l-2 -1l-3 -2l-2 -1l-3 -1h-3h-1l-1 1l-1 1l-1 3l-1 1v2l-1 2v2l-1 5v3v3v6v7v4l1 3l1 4l1 4l1 4l1 4l2 4l1 5l3 4l2 4l2 4l3 5l3 4l3 4l2 3l4 4l3 3l2 2l2 2l2 3l3 2l5 4l4 3l1 1
l-1 2v3l-1 1v2v3v2l1 2l1 3v3l2 3l1 3l3 3v2v2v3l1 4l1 3l1 2l1 1l1 2l1 1v2v3v3v4l1 5l1 5l2 6l1 4l1 3l2 3l1 4l2 4l2 4l2 3l3 4l1 3l1 1l3 4l3 5l3 4l4 4l4 4l4 4l4 4l4 3l3 3l4 3l4 2l4 2l5 2l5 3l4 1l5 2l5 1l5 1l5 1l6 1l5 1l6 1h5h6h5h6l6 -1h5l6 -1l6 -1l5 -1l6 -2
l5 -1l6 -2l5 -2l5 -3l5 -2l5 -3l5 -3l4 -3l2 -1l2 -1l3 -4l4 -3l3 -3l3 -3l2 -4l3 -3l3 -4l2 -4l2 -4l2 -3l3 -7l2 -4l1 -3l1 -4l1 -4l1 -3l1 -3l2 -7l1 -5v-6l1 -4l1 -7v-1l1 -1l2 -4l1 -2l2 -2l1 -3l2 -3v-3l1 -4l1 -3v-2l1 -2v-2l-1 -2v-2v-3l-1 -4l-1 -2l-1 -3v-1l1 -2
l5 -7l4 -6l2 -3l3 -4l2 -5l3 -5l2 -5l3 -6l2 -4l1 -3l1 -4l2 -3l1 -4l1 -3l1 -7l1 -7v-6v-3z" />
    <glyph glyph-name="uniE686" unicode="&#xe686;" 
d="M545 293q-4 0 -7 -1.5t-5.5 -4t-4 -5.5t-1.5 -7q0 -7 5 -12.5t12.5 -5.5t12.5 5.5t5 12.5t-5 12.5t-12 5.5zM532 384q7 0 12 3t8.5 8.5t3.5 11.5q0 10 -7 17t-17 7q-6 0 -11.5 -3t-8.5 -8.5t-3 -12.5q0 -9 7 -16t16 -7zM422.5 431q-9.5 0 -16.5 -7t-7 -16.5t7 -16.5
t16.5 -7t16.5 7t7 16.5t-7 16.5t-16.5 7zM628 293q-7 0 -12.5 -5.5t-5.5 -12.5t5.5 -12.5t12.5 -5.5q18 0 18 18q0 7 -5.5 12.5t-12.5 5.5zM512 812q-139 0 -257 -68.5t-186.5 -186.5t-68.5 -257t68.5 -257t186.5 -186.5t257 -68.5t257 68.5t186.5 186.5t68.5 257t-68.5 257
t-186.5 186.5t-257 68.5zM399 223l-64 -29l7 73q-28 36 -28 79q0 58 48 99t115.5 41t115.5 -41t48 -99q0 -2 -1 -5v-2q-26 10 -54 10q-56 0 -96.5 -35.5t-40.5 -85.5q0 -5 0.5 -10t1.5 -11q-14 2 -27 6t-25 10zM694 114l-48 21q-28 -13 -60 -13q-33 0 -61.5 14.5t-45 39
t-16.5 52.5q0 22 9.5 41.5t26 34t39.5 23t48 8.5q34 0 62.5 -14.5t45 -39t16.5 -53.5q0 -10 -2.5 -21t-7.5 -20.5t-11 -17.5z" />
    <glyph glyph-name="uniE687" unicode="&#xe687;" 
d="M975 187q-10 0 -19 -3.5t-15.5 -10t-10 -15.5t-3.5 -18v-1v-203q0 -22 -15.5 -37t-36.5 -15h-727q-22 0 -37 15t-15 37v727q0 21 15 36.5t37 15.5h204q19 0 33 14t14 34t-14 34t-33 14h-288q-27 0 -45.5 -19t-18.5 -45v-895q0 -27 18.5 -45.5t45.5 -18.5h895q17 0 32 8.5
t23.5 23.5t8.5 32v288q0 19 -14 33t-34 14zM395 454l-203 -203v-1v-270l270 1l1 -1l203 203l339 339q19 19 19 45.5t-19 44.5l-181 181q-12 13 -28.5 17t-33 0t-28.5 -17zM575 364l-1 -137l-150 -151h-136v136l152 151z" />
    <glyph glyph-name="uniE688" unicode="&#xe688;" horiz-adv-x="1935" 
d="M966 -212q48 0 82 36l1 -2l852 852q33 23 33 61q0 32 -22.5 54.5t-54.5 22.5q-33 0 -57 -27l-1 1l-832 -819l-833 819v-1q-11 13 -26 20t-31 7q-32 0 -54.5 -22.5t-22.5 -54.5q0 -34 28 -58l861 -860l1 1q15 -14 34.5 -22t41.5 -8z" />
    <glyph glyph-name="uniE689" unicode="&#xe689;" 
d="M853 812h-682q-71 0 -121 -50t-50 -121v-682q0 -28 8.5 -54t24.5 -47t37 -37t47 -24.5t54 -8.5h682q71 0 121 50t50 121v682q0 46 -23 85.5t-62.5 62.5t-85.5 23zM638 277q-12 -11 -118.5 -109.5t-116.5 -107.5q-3 -3 -6.5 -3.5t-7 1t-6 5t-4 9t-1.5 11.5v433
q0 10 4 17.5t9.5 9.5t12.5 -3q40 -37 234 -217q8 -8 8 -23t-8 -23z" />
    <glyph glyph-name="uniE68B" unicode="&#xe68b;" horiz-adv-x="1025" 
d="M53 353q-22 0 -37.5 -15.5t-15.5 -37.5t15.5 -37.5t37.5 -15.5q9 0 17 2.5t14.5 7.5t11.5 11.5t7.5 14.5t2.5 17q0 22 -15.5 37.5t-37.5 15.5zM512 353q-14 0 -26.5 -7t-19.5 -19.5t-7 -26.5q0 -11 4 -20.5t11.5 -17t17 -11.5t20.5 -4q22 0 37.5 15.5t15.5 37.5
t-15.5 37.5t-37.5 15.5zM971 353q-14 0 -26.5 -7t-19.5 -19.5t-7 -26.5q0 -11 4 -20.5t11.5 -17t17 -11.5t20.5 -4q14 0 26.5 7t19.5 19.5t7 26.5q0 11 -4 20.5t-11.5 17t-17 11.5t-20.5 4z" />
    <glyph glyph-name="uniE68C" unicode="&#xe68c;" 
d="M385 684q69 0 127.5 -34.5t92.5 -93.5t34 -128q0 -81 -47 -148l-25 -35l-35 -26q-33 -23 -70.5 -35t-76.5 -12q-52 0 -99 20.5t-81 54.5t-54.5 81.5t-20.5 99.5q0 106 74.5 181t180.5 75zM385 812q-151 0 -261 -104q-108 -102 -120 -250q-1 -15 -1 -30q0 -104 51 -192.5
t139 -140t192 -51.5q121 0 221 71l306 -308q19 -19 45 -19q27 1 45 19q19 19 19 45.5t-19 44.5l-306 309q71 100 71 222q0 104 -51.5 192.5t-139.5 140t-191 51.5z" />
  </font>
</defs>
</svg>
